<svg width="58" height="58" viewBox="0 0 58 58" fill="none" xmlns="http://www.w3.org/2000/svg">
<path d="M21.5701 16.9205C22.3949 16.4167 23.4719 16.6769 23.9757 17.5017L29.4491 26.4623L38.4097 20.9889C39.2345 20.4851 40.3115 20.7453 40.8154 21.5701C41.3192 22.3949 41.059 23.4719 40.2342 23.9758L31.2736 29.4491L36.747 38.4097C37.2508 39.2345 36.9906 40.3116 36.1658 40.8154C35.341 41.3192 34.2639 41.059 33.7601 40.2342L28.2867 31.2736L19.3261 36.747C18.5014 37.2508 17.4243 36.9906 16.9205 36.1658C16.4167 35.341 16.6769 34.264 17.5017 33.7602L26.4623 28.2868L20.9889 19.3262C20.485 18.5014 20.7453 17.4243 21.5701 16.9205Z" fill="#E7E7E7"/>
</svg>
